<?xml version="1.0" standalone="no"?>
<!DOCTYPE svg PUBLIC "-//W3C//DTD SVG 20010904//EN"
 "http://www.w3.org/TR/2001/REC-SVG-20010904/DTD/svg10.dtd">
<svg version="1.0" xmlns="http://www.w3.org/2000/svg"
 width="300.000000pt" height="300.000000pt" viewBox="0 0 300.000000 300.000000"
 preserveAspectRatio="xMidYMid meet">
<metadata>
Created by potrace 1.11, written by Peter Selinger 2001-2013
</metadata>
<g transform="translate(0.000000,300.000000) scale(0.100000,-0.100000)"
fill="#000000" stroke="none">
<path d="M0 1500 l0 -1500 136 0 c126 0 136 1 129 17 -4 10 -16 50 -27 88 -11
39 -28 79 -38 90 -44 47 -52 135 -24 258 17 74 23 74 38 4 4 -15 19 -41 34
-58 23 -25 38 -33 78 -36 90 -9 122 42 124 197 0 46 9 89 31 150 17 47 33 95
36 108 5 19 12 22 53 22 53 0 57 5 80 97 11 44 11 66 1 133 -8 45 -11 84 -7
87 8 8 202 -179 248 -240 21 -27 38 -59 39 -71 0 -11 2 -32 5 -46 13 -84 15
-192 4 -239 -13 -56 -7 -106 12 -95 8 5 9 1 3 -12 -4 -10 -14 -48 -22 -84 -23
-106 4 -209 85 -315 30 -40 44 -51 71 -53 29 -3 33 -1 26 15 -10 23 -39 106
-55 158 -7 22 -24 53 -38 70 -23 28 -24 34 -20 135 3 60 11 120 20 140 l15 35
7 -42 c15 -87 102 -144 174 -114 42 18 53 45 63 159 10 108 22 163 56 242 11
25 18 50 16 57 -3 8 13 13 49 15 l53 3 23 69 c23 67 23 71 8 159 -9 50 -15 92
-13 94 8 7 267 -255 283 -287 9 -19 18 -51 20 -70 1 -19 7 -66 13 -105 7 -50
7 -88 -1 -131 -6 -34 -8 -69 -5 -78 10 -27 69 -56 113 -56 46 0 65 12 88 55
l15 30 1 -27 c0 -16 -10 -38 -22 -50 -27 -27 -79 -124 -71 -132 4 -3 2 -6 -4
-6 -10 0 -10 -30 1 -121 6 -46 4 -57 -8 -62 -9 -4 -16 -14 -16 -23 0 -13 6
-15 30 -10 29 5 30 4 24 -22 -4 -15 -13 -39 -20 -54 -21 -41 -17 -48 22 -48
24 0 34 4 32 12 -3 7 13 35 34 63 37 49 45 65 86 195 32 101 36 135 37 285 1
122 4 147 24 195 13 30 28 70 35 88 10 29 15 32 52 32 50 0 58 8 80 88 16 57
16 68 2 149 -9 49 -14 90 -12 92 2 2 30 -22 62 -55 32 -32 89 -88 126 -123 36
-36 76 -80 87 -98 35 -57 48 -193 36 -372 -2 -40 28 -68 85 -77 54 -9 86 2
108 39 l20 32 0 -27 c0 -16 -8 -33 -20 -41 -11 -8 -32 -36 -47 -63 -25 -44
-28 -59 -28 -150 0 -68 -4 -106 -13 -117 -16 -19 -1 -31 28 -22 24 8 27 -13 6
-53 -7 -15 -17 -37 -20 -50 l-7 -22 135 0 136 0 0 1500 0 1500 -1500 0 -1500
0 0 -1500z m1845 1335 c170 -45 288 -162 341 -340 24 -83 24 -268 0 -349 -43
-146 -124 -248 -238 -304 -184 -89 -423 -64 -572 60 -54 44 -112 139 -139 223
-31 100 -31 290 0 390 53 168 169 278 338 321 70 17 200 17 270 -1z m-1065
-24 c163 -57 267 -156 321 -307 30 -82 33 -273 5 -354 -44 -130 -130 -231
-246 -290 -98 -49 -167 -60 -407 -60 l-213 0 0 521 0 521 238 -4 c214 -4 243
-7 302 -27z m1423 -1141 c94 -35 147 -112 147 -213 0 -79 -22 -120 -115 -217
-68 -71 -84 -93 -90 -128 l-7 -42 -88 0 -89 0 6 53 c8 76 43 147 91 185 55 44
82 90 82 141 0 104 -133 112 -155 10 l-7 -29 -104 0 c-119 0 -116 -3 -89 88
24 79 83 138 165 163 53 16 197 10 253 -11z m-1598 -262 c82 -147 153 -267
158 -268 4 0 7 122 7 270 l0 270 105 0 105 0 0 -401 0 -401 -38 49 c-41 51
-95 99 -236 208 l-89 69 6 -84 c7 -102 10 -104 -94 82 l-74 131 -3 -277 -2
-278 -100 4 c-95 3 -100 2 -100 -18 0 -22 -47 -101 -73 -123 -14 -11 -17 -11
-17 0 0 33 23 91 46 118 l25 30 -1 446 0 446 112 -3 112 -3 151 -267z m1133
190 l-3 -83 -202 -3 -203 -2 0 -90 0 -90 170 0 170 0 0 -79 0 -79 -62 -4 c-59
-3 -66 -1 -108 30 l-45 34 -3 -36 -3 -36 -60 0 -59 0 0 -105 0 -105 55 0 c30
0 55 -4 55 -9 0 -18 -53 -51 -82 -51 -25 0 -32 -6 -52 -51 -20 -46 -26 -52
-57 -55 -19 -2 -55 -1 -81 2 l-48 6 0 444 0 444 310 0 311 0 -3 -82z m367
-622 c18 -8 41 -26 50 -40 16 -25 16 -28 -4 -71 -11 -25 -21 -49 -21 -55 0
-27 -91 -40 -133 -19 -35 18 -57 51 -57 89 0 44 23 78 64 96 40 17 59 17 101
0z m-1029 -210 c-9 -22 -30 -57 -46 -76 l-30 -34 0 34 c0 36 25 87 64 128 18
21 21 21 24 7 2 -10 -3 -36 -12 -59z m836 42 c-7 -7 -12 -8 -12 -2 0 14 12 26
19 19 2 -3 -1 -11 -7 -17z"/>
<path d="M1634 2606 c-84 -38 -117 -121 -117 -291 1 -87 5 -121 22 -166 29
-75 76 -120 135 -126 97 -11 155 19 197 104 22 44 24 61 24 193 0 133 -2 149
-24 193 -34 69 -79 100 -149 104 -34 2 -69 -2 -88 -11z"/>
<path d="M540 2321 l0 -291 45 0 c125 0 202 44 225 131 16 56 16 251 1 306
-14 51 -54 101 -96 119 -17 7 -63 16 -103 19 l-72 8 0 -292z"/>
<path d="M247 836 c-4 -10 -5 -21 -2 -24 9 -9 17 6 13 25 -3 17 -4 17 -11 -1z"/>
</g>
</svg>
