<?xml version="1.0" standalone="no"?>
<!DOCTYPE svg PUBLIC "-//W3C//DTD SVG 20010904//EN"
 "http://www.w3.org/TR/2001/REC-SVG-20010904/DTD/svg10.dtd">
<svg version="1.0" xmlns="http://www.w3.org/2000/svg"
 width="548.000000pt" height="548.000000pt" viewBox="0 0 548.000000 548.000000"
 preserveAspectRatio="xMidYMid meet">
<metadata>
Created by potrace 1.11, written by Peter Selinger 2001-2013
</metadata>
<g transform="translate(0.000000,548.000000) scale(0.100000,-0.100000)"
fill="#000000" stroke="none">
<path d="M0 2740 l0 -2740 2740 0 2740 0 0 2740 0 2740 -2740 0 -2740 0 0
-2740z m1900 2315 l0 -34 78 -3 77 -3 3 -36 3 -37 75 -7 74 -7 0 -34 c0 -33 1
-34 40 -34 l40 0 0 -40 0 -40 40 0 40 0 0 -40 0 -40 40 0 c39 0 40 -1 40 -34
l0 -34 75 -7 75 -7 0 -39 c0 -39 0 -39 39 -39 39 0 40 -1 43 -37 3 -36 5 -38
39 -41 l37 -3 7 -75 7 -74 34 0 c33 0 34 -1 34 -40 l0 -40 40 0 40 0 0 -75 0
-75 40 0 40 0 0 -45 0 -45 40 0 40 0 0 -115 0 -115 34 0 c33 0 33 -1 40 -52 3
-29 6 -119 6 -200 l0 -148 34 0 c28 0 35 4 38 23 5 31 42 -82 67 -203 34 -160
55 -520 31 -520 -5 0 -10 -16 -10 -35 l0 -35 75 0 75 0 0 35 c0 34 1 35 40 35
l40 0 0 80 0 80 80 0 80 0 0 40 c0 39 1 40 35 40 l35 0 0 -80 0 -80 -35 0 -35
0 0 -80 0 -80 35 0 35 0 0 -195 0 -195 -35 0 -35 0 0 -80 0 -80 35 0 35 0 0
-120 0 -120 -34 0 -34 0 -7 -150 -7 -150 -37 -2 -36 -1 38 -4 c35 -4 37 -6 37
-39 0 -32 -2 -34 -34 -34 l-33 0 -7 -80 -7 -80 -35 0 c-33 0 -34 -1 -34 -40 0
-39 1 -40 35 -40 33 0 35 -2 35 -35 0 -33 -2 -35 -35 -35 -34 0 -35 -1 -35
-40 l0 -40 -40 0 c-40 0 -40 0 -40 -39 0 -39 -1 -40 -37 -43 l-38 -3 -3 -77
-3 -78 81 0 80 0 0 -40 0 -40 -75 0 -75 0 0 -40 0 -40 -45 0 -45 0 0 -40 0
-40 -74 0 -75 0 -3 -37 -3 -38 -77 -3 -78 -3 0 -33 0 -34 -80 -7 -80 -7 0 -34
0 -34 -54 0 c-29 0 -81 -3 -115 -6 l-61 -7 0 -33 0 -34 -120 0 -120 0 0 -40 0
-40 -469 0 -470 0 -3 38 -3 37 -117 3 -118 3 0 39 0 40 -80 0 -80 0 0 34 0 34
-75 7 -75 7 0 34 c0 32 -2 33 -42 36 -41 3 -43 4 -46 39 l-3 37 -75 7 -74 7 0
34 c0 33 -1 34 -40 34 l-40 0 0 40 0 40 -40 0 -40 0 0 40 c0 39 -1 40 -35 40
-33 0 -35 2 -35 35 l0 35 54 0 c29 0 81 3 115 6 l61 7 0 33 c0 33 -1 34 -40
34 l-40 0 0 40 c0 39 -1 40 -35 40 -24 0 -35 5 -35 15 0 12 -13 15 -60 15
l-60 0 0 105 c0 98 -1 105 -20 105 -17 0 -20 7 -20 40 l0 40 -40 0 -40 0 0 75
0 75 40 0 40 0 0 59 c0 32 -3 86 -6 120 -7 61 -7 61 -39 61 l-33 0 -7 75 -7
75 -33 0 -33 0 -7 -75 -7 -75 -34 0 -34 0 0 275 0 275 40 0 40 0 0 155 0 155
34 0 c33 0 35 -2 38 -37 3 -36 5 -38 41 -41 l37 -3 0 80 0 81 40 0 40 0 0 40
c0 29 -4 40 -15 40 -11 0 -15 11 -15 40 0 33 -3 40 -20 40 -16 0 -20 7 -20 35
0 28 4 35 20 35 19 0 20 7 20 125 0 115 -1 125 -18 125 -17 0 -20 12 -25 111
-4 62 -4 165 0 230 5 107 8 119 25 119 17 0 18 19 18 441 l0 441 728 -5 c400
-3 744 -9 765 -12 l37 -7 0 121 0 121 35 0 c34 0 35 1 35 40 0 39 -1 40 -35
40 l-35 0 0 120 0 120 -40 0 c-39 0 -40 1 -40 35 0 34 1 35 40 35 39 0 40 -1
40 -35z m2664 -646 c377 -52 642 -237 759 -529 44 -110 60 -226 55 -390 -4
-124 -9 -157 -32 -225 -57 -169 -156 -297 -406 -529 -95 -88 -191 -182 -213
-210 -73 -93 -112 -201 -123 -343 l-7 -83 -330 0 -330 0 6 133 c15 318 95 520
273 688 214 203 260 250 299 304 78 109 103 206 86 331 -20 137 -61 202 -156
246 -69 31 -190 32 -256 2 -96 -45 -160 -141 -183 -277 l-12 -72 -382 -3 -382
-2 0 89 c0 368 231 683 595 814 195 69 485 92 739 56z m-864 -1399 c0 -39 -1
-40 -35 -40 -34 0 -35 1 -35 40 0 39 1 40 35 40 34 0 35 -1 35 -40z m705
-1234 c78 -20 134 -54 195 -115 74 -74 102 -144 102 -256 0 -155 -74 -270
-220 -342 -69 -35 -83 -38 -177 -41 -252 -10 -418 109 -456 326 -10 56 -14 62
-35 62 -21 0 -24 5 -24 35 0 32 2 35 29 35 38 0 41 6 48 90 6 66 7 70 31 70
15 0 42 15 67 39 49 45 110 78 175 97 60 17 203 17 265 0z m-4165 -211 l0 -75
-35 0 -35 0 0 75 0 75 35 0 35 0 0 -75z m3460 -360 c0 -33 -2 -35 -35 -35 -33
0 -35 2 -35 35 0 33 2 35 35 35 33 0 35 -2 35 -35z m-3300 -310 c0 -33 -2 -35
-35 -35 -33 0 -35 2 -35 35 0 33 2 35 35 35 33 0 35 -2 35 -35z"/>
<path d="M1820 4115 c0 -33 2 -35 35 -35 33 0 35 2 35 35 0 33 -2 35 -35 35
-33 0 -35 -2 -35 -35z"/>
<path d="M1740 4035 c0 -34 1 -35 40 -35 39 0 40 1 40 35 0 34 -1 35 -40 35
-39 0 -40 -1 -40 -35z"/>
<path d="M1660 3955 c0 -34 1 -35 40 -35 39 0 40 1 40 35 0 34 -1 35 -40 35
-39 0 -40 -1 -40 -35z"/>
<path d="M1430 3880 c0 -39 1 -40 35 -40 34 0 35 1 35 40 0 39 -1 40 -35 40
-34 0 -35 -1 -35 -40z"/>
<path d="M1350 3650 c0 -39 1 -40 35 -40 34 0 35 1 35 40 0 39 -1 40 -35 40
-34 0 -35 -1 -35 -40z"/>
<path d="M1270 3485 c0 -33 2 -35 35 -35 33 0 35 2 35 35 0 33 -2 35 -35 35
-33 0 -35 -2 -35 -35z"/>
<path d="M3080 3010 l0 -200 34 0 34 0 7 -69 7 -68 51 -7 c96 -11 97 -11 97
34 l0 40 -40 0 -40 0 0 40 0 40 -40 0 -40 0 0 195 0 195 -35 0 -35 0 0 -200z"/>
<path d="M410 2855 c0 -33 2 -35 35 -35 33 0 35 2 35 35 0 33 -2 35 -35 35
-33 0 -35 -2 -35 -35z"/>
<path d="M330 1405 l0 -75 35 0 35 0 0 75 0 75 -35 0 -35 0 0 -75z"/>
<path d="M3480 1135 c0 -33 2 -35 35 -35 33 0 35 2 35 35 0 33 -2 35 -35 35
-33 0 -35 -2 -35 -35z"/>
</g>
</svg>
